HIERARCHY
ROOT Hips
{
    OFFSET 0.000000 0.000000 0.000000
    CHANNELS 6 Xposition Yposition Zposition Zrotation Xrotation Yrotation
    JOINT Spine
    {
        OFFSET -0.000000 8.312343 0.000000
        CHANNELS 3 Zrotation Xrotation Yrotation
        JOINT Spine1
        {
            OFFSET -0.000000 28.293047 0.000000
            CHANNELS 3 Zrotation Xrotation Yrotation
            JOINT Neck
            {
                OFFSET -0.000000 28.176853 2.561532
                CHANNELS 3 Zrotation Xrotation Yrotation
                JOINT Head
                {
                    OFFSET -0.000000 14.191803 -2.027400
                    CHANNELS 3 Zrotation Xrotation Yrotation
                    End Site
                    {
                        OFFSET -0.000000 25.342506 0.000000
                    }
                }
            }
            JOINT LeftShoulder
            {
                OFFSET 4.015815 26.370180 -0.268885
                CHANNELS 3 Zrotation Xrotation Yrotation
                JOINT LeftArm
                {
                    OFFSET 11.299099 0.000000 0.000000
                    CHANNELS 3 Zrotation Xrotation Yrotation
                    JOINT LeftForeArm
                    {
                        OFFSET 30.537071 0.000000 0.000000
                        CHANNELS 3 Zrotation Xrotation Yrotation
                        JOINT LeftHand
                        {
                            OFFSET 29.851767 0.000000 0.000000
                            CHANNELS 3 Zrotation Xrotation Yrotation
                            End Site
                            {
                                OFFSET 15.205504 0.000000 0.000000
                            }
                        }
                    }
                }
            }
            JOINT RightShoulder
            {
                OFFSET -4.091585 26.370180 -0.268885
                CHANNELS 3 Zrotation Xrotation Yrotation
                JOINT RightArm
                {
                    OFFSET -11.299099 0.000000 0.000000
                    CHANNELS 3 Zrotation Xrotation Yrotation
                    JOINT RightForeArm
                    {
                        OFFSET -30.537071 0.000000 0.000000
                        CHANNELS 3 Zrotation Xrotation Yrotation
                        JOINT RightHand
                        {
                            OFFSET -29.851767 0.000000 0.000000
                            CHANNELS 3 Zrotation Xrotation Yrotation
                            End Site
                            {
                                OFFSET -15.205504 0.000000 0.000000
                            }
                        }
                    }
                }
            }
        }
    }
    JOINT LeftUpLeg
    {
        OFFSET 10.137003 0.000000 0.000000
        CHANNELS 3 Zrotation Xrotation Yrotation
        JOINT LeftLeg
        {
            OFFSET -0.000000 -31.675148 0.000000
            CHANNELS 3 Zrotation Xrotation Yrotation
            JOINT LeftFoot
            {
                OFFSET -0.000000 -48.008553 0.000000
                CHANNELS 3 Zrotation Xrotation Yrotation
                JOINT LeftToeBase
                {
                    OFFSET -0.000000 -6.589051 15.205504
                    CHANNELS 3 Zrotation Xrotation Yrotation
                    End Site
                    {
                        OFFSET -0.000000 0.000000 4.054801
                    }
                }
            }
        }
    }
    JOINT RightUpLeg
    {
        OFFSET -10.137003 0.000000 0.000000
        CHANNELS 3 Zrotation Xrotation Yrotation
        JOINT RightLeg
        {
            OFFSET -0.000000 -31.675148 0.000000
            CHANNELS 3 Zrotation Xrotation Yrotation
            JOINT RightFoot
            {
                OFFSET -0.000000 -48.008553 0.000000
                CHANNELS 3 Zrotation Xrotation Yrotation
                JOINT RightToeBase
                {
                    OFFSET -0.000000 -6.589051 15.205504
                    CHANNELS 3 Zrotation Xrotation Yrotation
                    End Site
                    {
                        OFFSET -0.000000 0.000000 4.054801
                    }
                }
            }
        }
    }
}
MOTION
Frames:    5
Frame Time:    0.008333
100.570930    87.336967    -15.662153    -4.579875    -1.261525    82.378014    2.136660    -16.227116    -2.286019    1.434977    7.439028    -2.683979    -4.156350    21.291565    -6.550858    7.467411    0.947887    -6.018595    7.361807    -3.999532    0.681393    -37.640793    -12.179014    1.260571    28.122662    -37.297592    -94.454437    55.376789    0.018405    15.973643    -14.376049    2.938573    -1.869704    75.964920    64.141739    4.892592    0.547684    -12.605956    25.510406    -7.349266    -13.094092    5.859960    12.661896    2.767742    2.953374    -3.964500    -2.751791    10.336808    -8.916782    5.411131    19.918644    0.000000    0.000000    0.000000    -5.003741    2.464588    2.244474    3.154746    -2.705145    -2.998215    8.470379    0.406287    -7.773450    0.000000    0.000000    0.000000    
100.566910    87.339828    -15.659733    -4.573262    -1.265079    82.378731    2.117049    -16.220007    -2.287400    1.451582    7.445115    -2.683592    -4.146086    21.255838    -6.537247    7.424097    0.975451    -6.010052    7.352600    -3.946527    0.697024    -37.539295    -11.634248    1.318856    30.288183    -37.904633    -92.988831    58.413143    -0.306720    12.639618    -14.370706    2.914416    -1.893252    75.957565    64.135376    4.878059    0.555861    -12.652942    25.504728    -7.474554    -13.148621    5.853353    12.702499    2.789987    2.874703    -4.028510    -2.761953    10.132145    -8.933767    5.334509    20.198452    0.000000    0.000000    0.000000    -5.001303    2.466175    2.271089    3.159331    -2.704620    -3.022688    8.570613    0.379700    -7.725471    0.000000    0.000000    0.000000    
100.560715    87.339622    -15.657700    -4.573308    -1.268042    82.362648    2.108240    -16.239138    -2.285536    1.445762    7.498852    -2.681137    -4.136483    21.172993    -6.508543    7.408925    1.013523    -5.980783    7.358587    -3.951284    0.684264    -37.433018    -10.845222    1.526122    33.314114    -38.929775    -91.093300    59.960861    -0.661601    9.624787    -14.400654    2.883703    -1.902487    75.957443    64.075111    4.908173    0.567652    -12.662401    25.495241    -7.582940    -13.165762    5.849441    12.706510    2.797285    2.893069    -4.031190    -2.768739    10.109595    -8.892789    5.336653    20.206299    0.000000    0.000000    0.000000    -4.992262    2.443793    2.246669    3.152116    -2.676248    -2.992853    8.559614    0.374781    -7.700975    0.000000    0.000000    0.000000    
100.555527    87.340378    -15.656734    -4.566458    -1.273950    82.354187    2.095658    -16.223761    -2.292159    1.450319    7.496045    -2.685960    -4.112856    21.171162    -6.479988    7.369588    0.965791    -5.952029    7.321803    -3.915764    0.654281    -37.299313    -10.356173    1.677774    36.950623    -39.770363    -88.706787    62.066406    -0.970413    5.953397    -14.295816    2.724921    -1.856940    76.150024    64.057365    4.547853    0.586498    -12.731943    25.537159    -7.754796    -13.245117    5.804147    12.718520    2.795988    2.870417    -4.038940    -2.759513    10.146403    -8.879154    5.338019    20.194206    0.000000    0.000000    0.000000    -4.981202    2.439007    2.229469    3.144448    -2.664585    -2.999790    8.571627    0.375100    -7.667470    0.000000    0.000000    0.000000    
100.546768    87.338509    -15.655396    -4.574157    -1.281847    82.333168    2.091078    -16.234482    -2.283046    1.436461    7.527061    -2.675848    -4.072767    21.124155    -6.479820    7.362679    0.948036    -5.947900    7.333796    -3.897019    0.616271    -37.252266    -9.802176    1.860745    41.245049    -40.792603    -85.941582    63.404026    -1.466654    2.160544    -14.286761    2.720683    -1.877675    76.093750    64.083656    4.592510    0.557564    -12.795319    25.548296    -7.780393    -13.305235    5.832726    12.735620    2.775006    2.883087    -4.049542    -2.730349    10.150434    -8.892141    5.313846    20.203707    0.000000    0.000000    0.000000    -4.971107    2.411232    2.226972    3.146084    -2.647966    -2.992685    8.572354    0.377308    -7.657143    0.000000    0.000000    0.000000    
